PathFileType	4	(X/Y/Z)	T1_P2_Vision_Movement_3_0-736.trc
DataRate	CameraRate	NumFrames	NumMarkers	Units	OrigDataRate	OrigDataStartFrame	OrigNumFrames
60	60	6	27	m	60	552	736
Frame#	Time	RHip			RKnee			RAnkle			RBigToe			RSmallToe			RHeel			LHip			LKnee			LAnkle			LBigToe			LSmallToe			LHeel			Neck			Head			Nose			RShoulder			RElbow			RWrist			RThumb			RIndex			RPinky			LShoulder			LElbow			LWrist			LThumb			LIndex			LPinky		
		X1	Y1	Z1	X2	Y2	Z2	X3	Y3	Z3	X4	Y4	Z4	X5	Y5	Z5	X6	Y6	Z6	X7	Y7	Z7	X8	Y8	Z8	X9	Y9	Z9	X10	Y10	Z10	X11	Y11	Z11	X12	Y12	Z12	X13	Y13	Z13	X14	Y14	Z14	X15	Y15	Z15	X16	Y16	Z16	X17	Y17	Z17	X18	Y18	Z18	X19	Y19	Z19	X20	Y20	Z20	X21	Y21	Z21	X22	Y22	Z22	X23	Y23	Z23	X24	Y24	Z24	X25	Y25	Z25	X26	Y26	Z26	X27	Y27	Z27
553	9.216666666666667	454.26158888822766	3765.494789398817	641.3468265189636	850.2234566561222	3780.673884363794	642.9368474176512	1215.5752622031755	3732.676474624076	690.9734245549047	1284.2993225946107	3623.1105075419073	653.0742916579652	1284.7747523520288	3671.9361325411046	608.1531702662684	1287.1551684610452	3799.5058666800323	747.6509429118008	470.3989463893431	3618.345281930435	820.6059560520124	857.6032798165132	3658.738217982838	838.8076187694111	1228.8474112154959	3693.3794768560047	848.1709804886577	1291.7291611976148	3541.574731847422	769.165482858213	1277.5517226294146	3537.6680681441276	807.5749058466689	1268.162543169908	3714.2551794943465	842.3732137168719	-125.09755005582915	3628.7618317913734	706.489899044022	-385.67144472830876	3544.180528725791	661.7414101009524	-236.39568500921123	3503.053696579961	634.4778766077882	-49.03479052378781	3718.5264061709554	561.0310919669716	152.44747729774167	3851.7808310287232	521.9524271337176	188.29105737031077	3618.963128051701	534.7374752866123	255.06006963929963	3525.704147606447	631.3153934878712	282.76587891095835	3540.0142474603826	636.3791022859066	308.7599761798595	3497.4582101375877	539.7786612458912	-29.476107854530394	3618.127235573936	877.8426563951924	218.24344237413277	3629.7721597681543	963.8749445084352	429.1711429027738	3489.17425332854	871.088197740413	525.1081618404103	3489.6462485731777	792.7133552424817	552.2555059896398	3460.026748846642	807.4383423110205	570.1184481937177	3473.03565937421	854.6020167059744
554	9.233333333333333	449.87700472179705	3764.010280271387	640.5791754646116	844.0819445240779	3776.382466240608	641.8247671157892	1208.7531674322317	3728.2157248479334	689.6649201828403	1277.7770168147179	3618.8289082017777	651.7432826498766	1276.408843405409	3673.1428131862644	609.9507379306428	1295.5118840582202	3820.839715917708	757.9444570645411	474.76772295990713	3619.5880661596984	821.4819413473949	854.7336111612785	3648.5206851842927	833.776587671163	1230.7994717464596	3700.8986533832535	853.3365840790669	1299.7332933215491	3563.4647129894925	776.3928951124346	1277.3928452540133	3537.8614271087613	807.5367784691343	1268.0852977327188	3714.0613860647013	842.292669672017	-125.0406298879525	3628.4014606607348	706.2627173214936	-385.6771807782186	3544.0570898620276	661.7245363757689	-236.42012892347822	3503.027238078649	634.4972978072373	-48.28702677358176	3733.3235943661493	578.9023824436232	152.20647907430646	3851.4469480126963	521.8139684942462	192.32853956565734	3613.2071728659603	536.8257235668394	254.7557431377965	3525.6108057814736	631.352199024746	282.61235741058175	3540.0428328415665	636.6396638937757	305.70034755802476	3501.19569007631	542.0284290251351	-35.31700724680892	3577.6364673207345	854.8344148527292	216.0346646944194	3598.216740704253	951.251640913586	415.8782362500864	3468.7600716686547	854.013250853281	520.7820224706943	3474.2666522097124	778.0865724752987	548.697141380544	3466.0485397320936	806.4776742427044	558.3759963492319	3466.3902034334924	850.5372693020412
555	9.25	454.4706661487353	3765.7235719551	641.7907310328508	855.2600365696364	3795.5483010364105	657.0257974110035	1208.7712592335095	3728.2305340357443	689.5873745564461	1277.8997379064804	3619.4097615657683	651.921288082402	1276.4309995523786	3673.3377587093382	610.0540202590847	1287.5130358508882	3802.6385617948813	743.1862233759629	474.79496960254704	3619.805825888355	821.5895026210402	856.3644320116271	3655.7949289926432	838.6368484407122	1230.680028889776	3700.847336892582	853.3654912913461	1296.1944560035224	3543.4515236888365	770.8729964855734	1276.9476754166485	3539.1087780167795	802.869619947997	1267.9364174908894	3714.2449465552572	842.4617031720012	-125.242532104158	3628.633900766049	706.556130567738	-385.63203774677	3544.1669109691047	661.7813468599201	-236.47156914053755	3503.0938748213484	634.4788658663299	-48.34058678197417	3736.1867140916306	574.6657650290877	150.10206896524105	3832.8632081457718	508.40004064512567	188.24900936267133	3618.9230441541345	534.7530931620714	245.5934332098301	3528.2706462025644	632.8028851417478	277.88961858372284	3536.7136152488183	635.8229161787127	308.23779963299467	3515.676370711423	559.7117961957714	-30.538497197639483	3578.1763575682803	860.0098732258584	215.9713727845253	3597.655321207689	951.211791839747	415.7167781715881	3468.683842905622	853.9695325720378	518.6243776879772	3491.9412224850453	781.0255238828174	544.8678154588256	3474.8418673988594	805.3495568888673	557.3805936429302	3467.1411598386194	849.1197240036776
556	9.266666666666667	454.5859400707644	3766.0001637733217	641.9129310356078	861.1726049555987	3797.755792476106	658.6650304365324	1223.439864300031	3749.9575360754184	705.168553872497	1278.0077576975546	3618.6903432445997	651.7911572364925	1284.9493822465872	3672.0151608861775	608.1037143316943	1302.248464621356	3825.333175349956	759.0333326401454	479.0874765677766	3621.2925483752088	822.6612445820218	856.3908487591253	3655.6322326688505	838.5179800591688	1235.729871845984	3702.60689078265	855.0990576198012	1296.298845202169	3543.286745248694	770.838175204224	1277.375179710861	3537.5633213853894	807.5639486335612	1268.1363336118611	3714.0739073041427	842.3704073012361	-125.13482530336285	3628.355065863337	706.3588298889466	-385.66399891368445	3544.0613174377827	661.6938783125629	-236.41630784290805	3503.129560245456	634.4136352013636	-48.26476119792623	3733.1347814789733	578.7880966787335	150.46335921795273	3828.0778732197473	516.0037325403893	192.83802816080612	3620.4772282951294	535.5073697206639	245.3437522540577	3528.686148366792	633.0145687151603	277.53009554827895	3537.247987364271	636.0582872641141	310.3766073136275	3531.3822602919777	568.8350459673567	-30.591149834181643	3577.8754452128887	859.8168760641993	213.95098665165486	3571.0814993673825	946.7266799077623	415.4769573868322	3468.3418472946955	853.6706231254609	513.4789160464518	3490.6656326099333	771.3229834107441	536.1069692196786	3460.352506439146	789.2388974332878	544.5207429706467	3453.042105702049	835.9754741463166
557	9.283333333333333	454.84250680289	3766.3912112953885	642.2375009678025	860.914778599584	3797.3903066810212	658.5444949292063	1223.4085781045305	3750.122731075726	705.2753695088273	1277.7807398070513	3618.3299828758036	651.5663412214061	1284.774620732802	3671.7554274183767	608.0382288556071	1295.5792859976848	3817.357452712354	762.1072849103259	474.76456974387725	3619.793586507591	821.5498283966135	861.7284906985066	3671.737344880681	852.8745751457996	1230.7468178508743	3701.228715260623	853.5004426336167	1291.3706680624846	3541.898162500718	769.2114461689698	1283.9743909440087	3553.80751450221	816.6535991682752	1265.563762237872	3720.2406092607134	845.868718909876	-125.07007902840846	3627.901928901224	706.1086044946052	-385.48678191435573	3543.79385435809	661.5405266333937	-236.23344786579784	3502.8246119545543	634.1076966780471	-48.76948376579691	3711.177881827828	573.5489537929626	150.3099039837532	3828.1442386943004	516.0591305030284	188.173423130523	3619.2036390918765	534.9564891120717	245.93886390427434	3528.595142607658	633.0294469192754	277.5968924675932	3537.470040124825	636.2007534642398	307.0464622447635	3535.1503330711944	570.9827952995805	-35.32744971026384	3573.8286475917025	857.9414347789584	220.5782172409769	3582.056825984041	958.8635205836072	406.3327569489131	3468.363880463658	854.2194107381306	503.5643882408175	3495.4816225573713	765.3874239118526	523.066253029277	3448.9549458841025	776.4955284859802	543.391194900436	3452.2443058844683	834.9935540007309
558	9.3	454.8704536370279	3766.5213175431395	642.3463529035025	849.3251685796454	3791.179515087959	655.9462623361879	1223.2384619525815	3750.1452838508894	705.1325214424973	1277.8242050124695	3619.0035342847405	651.6699240552177	1276.4271025506168	3673.2038085783342	609.9107871950667	1296.0053916042536	3821.024180185217	758.0761043073779	474.706397145451	3613.0778023114117	817.3835015664971	865.1139524734187	3666.265823653705	849.7579709087316	1230.6726099670543	3700.9911453036493	853.3750374937023	1299.279315397192	3563.337286879312	776.2629681390126	1277.1115508206688	3550.2706585465103	815.6685116430524	1268.0777476458597	3714.3390974794497	842.4438206651619	-125.07924320476248	3628.0484137527487	706.2015240332055	-385.47019730237076	3543.6243169616596	661.4784512298936	-236.18384165586883	3502.6391463621553	634.0701712781934	-48.727114981577145	3711.233410231906	573.5745571807531	150.45662034721985	3827.8579219862404	515.9424449599597	192.69384880419457	3620.29975086562	535.5219395367617	245.6516074222881	3528.548221864872	633.0251019697602	272.98223785131034	3533.699851665522	634.9150754884985	306.890938352876	3534.610015517048	570.658622809021	-35.33766595783525	3573.8967544794245	858.0132633762033	215.8396376212705	3587.3056307382253	962.0622145944183	403.0645511542362	3453.6824545436407	840.3588630316482	493.3823866989833	3491.7767400392663	754.6231203064943	521.9357758796017	3455.3676130560875	763.6114196302722	546.6240994195315	3471.598676778647	837.2012811894382
